<?xml version="1.0" encoding="utf-8"?>

<svg xmlns="http://www.w3.org/2000/svg" viewBox="0 0 95 20" fill="none">
  <g clip-path="url(#clip0_5185_16682)">
    <path d="M89.2517 14.7837L88.6728 14.7213V14.7464L89.1393 14.9253L90.225 15.5457V15.7288L89.136 16.3799L88.6728 16.5645V16.5851L89.2485 16.5021H90.761V17.042H87.8516V16.5219L89.1828 15.7441L89.5147 15.6077V15.5908L89.1724 15.4661L87.8516 14.73V14.2139H90.761V14.7837H89.2517Z" fill="white"></path>
    <path d="M90.761 12.7368H87.8516V13.3063H90.761V12.7368Z" fill="white"></path>
    <path d="M90.6431 10.0259C90.7055 10.1136 90.7523 10.2271 90.7783 10.3645C90.8057 10.5003 90.8195 10.6425 90.8195 10.7862C90.8195 10.96 90.7933 11.1263 90.7396 11.2837C90.6843 11.4398 90.598 11.5778 90.4772 11.6972C90.3558 11.8166 90.2012 11.9114 90.007 11.9819C89.8134 12.0519 89.5803 12.0878 89.3054 12.0878C89.0204 12.0878 88.7816 12.0488 88.5883 11.9701C88.3964 11.8897 88.2403 11.7878 88.1229 11.6619C88.0058 11.536 87.9208 11.3946 87.8692 11.2397C87.817 11.0836 87.791 10.9287 87.791 10.7735C87.791 10.607 87.8031 10.4673 87.826 10.3516C87.8486 10.2361 87.8743 10.141 87.9053 10.0665L88.3876 10.1786C88.356 10.2418 88.334 10.318 88.3202 10.4057C88.3061 10.4927 88.2993 10.5982 88.2993 10.7238C88.2993 10.9538 88.3808 11.1392 88.5445 11.2781C88.7088 11.4192 88.9631 11.4886 89.3085 11.4886C89.4592 11.4886 89.5941 11.4728 89.7183 11.4398C89.8427 11.4062 89.9486 11.3551 90.0344 11.2874C90.1227 11.2194 90.1899 11.1356 90.2401 11.034C90.2886 10.9332 90.3126 10.8153 90.3126 10.682C90.3126 10.5579 90.3008 10.4515 90.2748 10.3662C90.2505 10.2804 90.2198 10.2048 90.18 10.141L90.6431 10.0259Z" fill="white"></path>
    <path d="M87.8791 9.35532C87.8678 9.29097 87.8571 9.2224 87.8484 9.14873C87.8379 9.07592 87.8309 9.00283 87.8258 8.92861C87.8207 8.85523 87.8154 8.78354 87.8123 8.7144C87.8103 8.64526 87.8086 8.5812 87.8086 8.52334C87.8086 8.38759 87.8207 8.25325 87.847 8.12146C87.8712 7.98966 87.9139 7.87198 87.9748 7.7684C88.0369 7.66427 88.1201 7.5813 88.2271 7.51892C88.3324 7.45655 88.467 7.42523 88.6282 7.42523C88.8666 7.42523 89.0599 7.4811 89.2104 7.59145C89.3591 7.7018 89.4644 7.8511 89.5216 8.03708L89.6515 7.83303L90.7609 7.16699V7.82513L89.6216 8.4858L89.5682 8.78524H90.7609V9.35532H87.8791ZM88.3172 8.48185C88.3172 8.53971 88.3172 8.59728 88.3203 8.65373C88.3219 8.71073 88.329 8.7542 88.3355 8.78524H89.1813V8.54394C89.1813 8.3859 89.1452 8.25975 89.074 8.16634C89.0015 8.07123 88.8819 8.02438 88.7142 8.02438C88.5901 8.02438 88.4932 8.06276 88.4224 8.14065C88.3519 8.21826 88.3172 8.33115 88.3172 8.48185Z" fill="white"></path>
    <path d="M89.3051 6.80319C88.8211 6.80319 88.4458 6.69567 88.185 6.48288C87.9242 6.2698 87.791 5.96416 87.791 5.56735C87.791 5.36021 87.8274 5.17903 87.9 5.02239C87.9725 4.86745 88.0746 4.73877 88.2093 4.63688C88.3405 4.5333 88.5014 4.45739 88.6868 4.40772C88.8731 4.35748 89.0785 4.3335 89.3051 4.3335C89.7908 4.3335 90.1645 4.43989 90.4269 4.65522C90.6897 4.86887 90.8192 5.17366 90.8192 5.56735C90.8192 5.7793 90.7845 5.96161 90.7123 6.11655C90.6397 6.27205 90.5359 6.40103 90.4044 6.50122C90.2714 6.60253 90.1109 6.67873 89.9257 6.72812C89.7406 6.77835 89.5334 6.80319 89.3051 6.80319ZM89.3051 6.20347C89.4522 6.20347 89.5885 6.19105 89.7115 6.16735C89.8343 6.14223 89.9412 6.10385 90.0293 6.05333C90.1176 6.00055 90.1885 5.93565 90.2384 5.8555C90.287 5.77478 90.3124 5.67855 90.3124 5.56735C90.3124 5.36528 90.2333 5.20922 90.0762 5.09859C89.917 4.98683 89.6616 4.93123 89.3051 4.93123C89.1651 4.93123 89.0322 4.94308 88.9112 4.96623C88.7881 4.99105 88.6828 5.02746 88.5897 5.07741C88.5 5.1268 88.4277 5.192 88.3752 5.27215C88.325 5.3523 88.2993 5.45108 88.2993 5.56735C88.2993 5.77111 88.3809 5.92718 88.5429 6.03809C88.7054 6.14928 88.9594 6.20347 89.3051 6.20347Z" fill="white"></path>
    <path d="M93.3243 4.50047H92.8592V5.73292H92.6763V4.50047H92.2148V4.33594H93.3243V4.50047Z" fill="white"></path>
    <path d="M94.9986 5.73292H94.8223V4.56341L94.4164 5.73292H94.2505L93.8528 4.54393L93.848 5.73292H93.668V4.33594H93.9445L94.2759 5.3237C94.2776 5.32766 94.2903 5.36462 94.3126 5.44026C94.3281 5.48344 94.3391 5.51448 94.3405 5.5317L94.4195 5.30706L94.7534 4.33594H94.9986L94.9986 5.73292Z" fill="white"></path>
    <path d="M48.6406 4.33398H57.7537V6.44611H51.368V9.43368H57.2441V11.5436H51.368V14.9299H57.9465V17.0423H48.6406V4.33398Z" fill="white"></path>
    <path d="M67.9302 17.0423L63.2637 8.59182L63.2295 8.62936V17.0423H60.6797V4.33398H64.0567L68.6958 12.638L68.7322 12.6027V4.33398H71.2812V17.0423H67.9302Z" fill="white"></path>
    <path d="M78.5147 4.33404H74.1895V17.0415H78.5147C82.4782 17.0768 84.9417 15.1046 84.9417 10.6868C84.9417 6.26837 82.4782 4.29593 78.5147 4.33404ZM78.3262 14.9285H76.9143V6.54494H78.3262C81.5624 6.50825 82.0394 8.66412 82.0394 10.6868C82.0394 12.7128 81.5624 14.9686 78.3262 14.9285Z" fill="white"></path>
    <path d="M23.0234 4.33398H33.3137V6.44611H29.5306V17.0423H26.8063V6.44611H23.0234V4.33398Z" fill="white"></path>
    <path d="M43.7838 11.6632C45.1995 11.1445 46.2087 9.77379 46.2087 8.16401C46.2087 7.97323 46.1948 7.78555 46.1675 7.60183C45.9908 6.42527 45.362 5.52555 44.3037 4.90834C44.1815 4.82903 43.3814 4.33543 41.0184 4.33543H41.0167C40.9704 4.33543 40.9253 4.33317 40.8801 4.3343H35.4863V17.0423H38.2117V11.9977H41.0946C41.0946 11.9977 42.8748 15.9126 43.1048 17.0423H46.4581L43.7838 11.6632ZM38.2117 6.48989H41.4318C42.5122 6.5057 43.1898 6.89544 43.3097 7.79995V7.81576C43.3131 7.84764 43.3159 7.87841 43.3173 7.90889C43.321 7.94106 43.321 7.97182 43.3244 8.0023L43.3258 8.05818V8.12648C43.3159 9.22939 42.6138 9.815 41.4318 9.83108H38.2117V6.48989Z" fill="white"></path>
    <path d="M9.99994 0C4.49313 0 0 4.49315 0 10C0 15.5343 4.49313 20 9.99994 20C15.5342 20 19.9999 15.5068 19.9999 10C20.0273 4.49315 15.5342 0 9.99994 0Z" fill="#D71920"></path>
    <path d="M5.61544 9.94527C4.16341 12.7672 4.35518 13.6713 4.60176 14.3836C5.25931 16.274 8.9031 15.7535 12.4647 12.9589C16.0264 10.1644 17.6702 6.3014 16.1085 4.30142C14.7661 2.57538 11.3963 2.87675 8.2182 4.82196C12.1908 2.27401 16.3551 1.80825 17.9716 3.89045C19.7798 6.21921 17.725 10.8767 13.3414 14.3014C8.95791 17.7261 3.94424 18.6028 2.13603 16.274C0.98535 14.822 1.25932 12.4384 2.82096 10.0274H1.64288L1.91685 9.39731C1.91685 9.39731 3.99903 8.98633 6.10861 7.06854H6.9579L5.91682 9.34252H7.64285L7.31407 10.0274L5.61544 9.94527Z" fill="white"></path>
  </g>
  <defs>
    <clipPath id="clip0_5185_16682">
      <rect width="95" height="20" fill="white"></rect>
    </clipPath>
  </defs>
  <script xmlns=""></script>
</svg>
  
