<?xml version="1.0" encoding="utf-8"?>
<svg xmlns="http://www.w3.org/2000/svg" viewBox="0 0 20 20" fill="none">
  <circle cx="10" cy="10" r="10" fill="#D71920"/>
  <path d="M5.61544 9.94527C4.16341 12.7672 4.35518 13.6713 4.60176 14.3836C5.25931 16.274 8.9031 15.7535 12.4647 12.9589C16.0264 10.1644 17.6702 6.3014 16.1085 4.30142C14.7661 2.57538 11.3963 2.87675 8.2182 4.82196C12.1908 2.27401 16.3551 1.80825 17.9716 3.89045C19.7798 6.21921 17.725 10.8767 13.3414 14.3014C8.95791 17.7261 3.94424 18.6028 2.13603 16.274C0.98535 14.822 1.25932 12.4384 2.82096 10.0274H1.64288L1.91685 9.39731C1.91685 9.39731 3.99903 8.98633 6.10861 7.06854H6.9579L5.91682 9.34252H7.64285L7.31407 10.0274L5.61544 9.94527Z" fill="white"/>
</svg>